<!-- estimator-bot-avatar.svg | 512x512 | red/black wine theme -->
<svg xmlns="http://www.w3.org/2000/svg" width="512" height="512" viewBox="0 0 512 512">
  <defs>
    <!-- vignette + wine rim -->
    <radialGradient id="bgG" cx="50%" cy="40%" r="70%">
      <stop offset="0%" stop-color="#0b0b0d"></stop>
      <stop offset="70%" stop-color="#0b0b0d"></stop>
      <stop offset="100%" stop-color="#1a0e11"></stop>
    </radialGradient>
    <linearGradient id="rimG" x1="0" y1="0" x2="1" y2="1">
      <stop offset="0%" stop-color="#b51f3b"></stop>
      <stop offset="100%" stop-color="#7b0f1f"></stop>
    </linearGradient>
    <linearGradient id="accentG" x1="0" y1="0" x2="0" y2="1">
      <stop offset="0%" stop-color="#ff335a"></stop>
      <stop offset="100%" stop-color="#b60f2e"></stop>
    </linearGradient>
    <filter id="soft" x="-20%" y="-20%" width="140%" height="140%">
      <feGaussianBlur in="SourceGraphic" stdDeviation="2"></feGaussianBlur>
    </filter>
  </defs>

  <!-- circular plate -->
  <circle cx="256" cy="256" r="244" fill="url(#bgG)" stroke="url(#rimG)" stroke-width="8"></circle>
  <!-- subtle inner glow -->
  <circle cx="256" cy="256" r="210" fill="none" stroke="#ff385f11" stroke-width="10" filter="url(#soft)"></circle>

  <!-- bot head (subtle) -->
  <g transform="translate(0,-8)">
    <rect x="176" y="112" rx="24" ry="24" width="160" height="90" fill="#121215" stroke="#2b1a1f" stroke-width="3"></rect>
    <circle cx="214" cy="157" r="12" fill="#ff335a"></circle>
    <circle cx="298" cy="157" r="12" fill="#ff335a"></circle>
    <rect x="238" y="150" width="36" height="14" rx="7" fill="#2a2a2f"></rect>
  </g>

  <!-- grocery bag (Uber Eats motif but red/black) -->
  <g transform="translate(108,190)">
    <path d="M70,70 h156 a16,16 0 0 1 16,16 v120 a18,18 0 0 1 -18,18 H72 a18,18 0 0 1 -18,-18 V86 a16,16 0 0 1 16,-16z" fill="#121214" stroke="#2f1b20" stroke-width="4"></path>
    <!-- bag handle -->
    <path d="M100,70 c0,-20 18,-36 40,-36 h24 c22,0 40,16 40,36" fill="none" stroke="url(#accentG)" stroke-width="8" stroke-linecap="round"></path>

    <!-- “E” mark (estimator / eats) -->
    <g transform="translate(94,108)">
      <rect x="0" y="0" width="72" height="56" rx="8" fill="#1a1114" stroke="#3a2026" stroke-width="3"></rect>
      <rect x="10" y="12" width="52" height="8" rx="4" fill="url(#accentG)"></rect>
      <rect x="10" y="24" width="40" height="8" rx="4" fill="url(#accentG)"></rect>
      <rect x="10" y="36" width="34" height="8" rx="4" fill="url(#accentG)"></rect>
    </g>

    <!-- calculator tile -->
    <g transform="translate(176,98)">
      <rect x="0" y="0" width="74" height="90" rx="10" fill="#101013" stroke="#31171c" stroke-width="3"></rect>
      <rect x="10" y="10" width="54" height="16" rx="4" fill="#1c1e22"></rect>
      <!-- keys -->
      <g fill="#2a2d33">
        <rect x="10" y="32" width="16" height="16" rx="3"></rect>
        <rect x="30" y="32" width="16" height="16" rx="3"></rect>
        <rect x="50" y="32" width="16" height="16" rx="3"></rect>
        <rect x="10" y="52" width="16" height="16" rx="3"></rect>
        <rect x="30" y="52" width="16" height="16" rx="3"></rect>
        <rect x="50" y="52" width="16" height="16" rx="3"></rect>
        <rect x="10" y="72" width="16" height="16" rx="3"></rect>
        <rect x="30" y="72" width="16" height="16" rx="3"></rect>
      </g>
      <!-- plus key accent -->
      <rect x="50" y="72" width="16" height="16" rx="3" fill="url(#accentG)"></rect>
    </g>
  </g>

  <!-- soft shadow under objects -->
  <ellipse cx="256" cy="386" rx="150" ry="20" fill="#00000055" filter="url(#soft)"></ellipse>
</svg>
